<?xml version="1.0" encoding="UTF-8"?>
<svg id="Layer_2" xmlns="http://www.w3.org/2000/svg" viewBox="0 0 304.54 293.4">
  <defs>
    <style>
      .cls-1 {
        fill: #ef3f38;
      }

      .cls-2 {
        fill: #1e1e1e;
      }

      .cls-3 {
        fill: #fee600;
      }

      .cls-4, .cls-5 {
        fill: #fff;
      }

      .cls-6 {
        fill: #3d54a5;
      }

      .cls-7 {
        stroke-width: 13px;
      }

      .cls-7, .cls-8 {
        fill: none;
      }

      .cls-7, .cls-8, .cls-5 {
        stroke: #1e1e1e;
        stroke-miterlimit: 10;
      }

      .cls-8, .cls-5 {
        stroke-width: 12.62px;
      }
    </style>
  </defs>
  <g id="Layer_3">
    <g id="Filipino">
      <path class="cls-7" d="M266.22,207.5c-20.15,49.91-66.58,79.4-123.7,79.4-75.12,0-136.01-60.89-136.01-136.01,0-45.11,21.96-85.09,55.77-109.83"/>
      <g>
        <polygon class="cls-6" points="298.23 129.47 30.07 129.47 52.84 65.16 69.63 30.45 107.29 24.54 133.29 6.57 193.08 8.98 213.51 10.68 243.19 30.01 268.38 40.59 277.76 65.16 290.58 96.29 298.23 129.47"/>
        <polygon class="cls-1" points="266.22 207.5 247.3 235.51 173.51 257.92 78.22 250.24 54.17 236.37 30.07 190.86 30.07 127.27 297.75 124.83 284.88 156.31 287.92 193.51 266.22 207.5"/>
        <polygon class="cls-4" points="193.08 129.47 66.34 34.67 39.06 84.73 25 116.18 27.21 184.91 39.06 213.57 60.61 226.55 193.08 129.47"/>
        <polygon class="cls-3" points="90.16 84.73 95.61 106.5 111.21 90.37 105.04 111.95 126.62 105.78 110.49 121.38 132.26 126.83 110.49 132.28 126.62 147.88 105.04 141.72 111.21 163.29 95.61 147.16 90.16 168.93 84.71 147.16 69.11 163.29 75.27 141.72 53.7 147.88 69.83 132.28 48.06 126.83 69.83 121.38 53.7 105.78 75.27 111.95 69.11 90.37 84.71 106.5 90.16 84.73"/>
      </g>
      <path class="cls-8" d="M289.56,185.63c-8.21,16.48-13.3,12.13-27.78,23.88-5.97,4.84-11.8,26.57-18.6,30.38-6.79,3.81-26.21-8.97-33.7-6.31-14.99,5.35-19,24.34-35.97,24.34-7.39,0-21.6-12.5-28.68-13.56-11.07-1.67-23.92,1.75-33.92-2.27-15.21-6.11-9.75-4.53-21.51-15.15-5.9-5.32-24.85-5.17-29.66-11.41-6.06-7.87-1.41-24.63-5.46-33.71-6.82-15.26-15.22-13.48-15.22-31.08,0-6.61,12.81-21.24,13.83-27.58,1.91-11.76-10.61-23.2-5.55-33.67,4.22-8.73,7.66-12.13,13.75-19.69,5.33-6.6-1.3-29.62,5.26-35.12,12.03-10.1,25.66-4.52,40.95-10.13,7.51-2.74,17.9-16.51,25.99-17.97,8.38-1.52,26.5,4.1,35.36,4.1,15.15,0,31.27-4.3,44.87,0,9.67,3.06,15.54,11.89,24.11,16.8,8.57,4.91,23.58,6.59,30.76,13.11,12.86,11.66,3.5,27.61,10.71,43.23,7.2,15.63,19.13,19.2,19.13,37.31,0,9.49-11.03,22.12-13.12,31.02-2.17,9.3,8.64,25.07,4.45,33.48Z"/>
      <rect class="cls-5" x="95.12" y="102.6" width="146.25" height="48.42" rx="24.21" ry="24.21"/>
      <rect class="cls-2" x="66.42" y="139.61" width="11.84" height="29.33" rx="5.92" ry="5.92" transform="translate(-53.82 39.75) rotate(-22.65)"/>
      <rect class="cls-2" x="200.51" y="45.16" width="11.84" height="29.33" rx="5.92" ry="5.92" transform="translate(3.41 -10.72) rotate(3)"/>
      <rect class="cls-2" x="188.18" y="170.24" width="11.84" height="29.33" rx="5.92" ry="5.92" transform="translate(-56.04 281.34) rotate(-64.69)"/>
      <rect class="cls-2" x="123.38" y="187.11" width="11.84" height="29.33" rx="5.92" ry="5.92" transform="translate(226.33 -17.35) rotate(56.54)"/>
      <rect class="cls-2" x="123.38" y="50.5" width="11.84" height="29.33" rx="5.92" ry="5.92" transform="translate(226.6 172.39) rotate(-158.97)"/>
      <rect class="cls-2" x="79.91" y="62.51" width="11.84" height="29.33" rx="5.92" ry="5.92" transform="translate(-23.1 39) rotate(-22.65)"/>
      <rect class="cls-2" x="227.22" y="187.11" width="11.84" height="29.33" rx="5.92" ry="5.92" transform="translate(108.62 -80.29) rotate(25.31)"/>
      <rect class="cls-2" x="252.97" y="136.36" width="11.84" height="29.33" rx="5.92" ry="5.92" transform="translate(49.32 -63.25) rotate(15.38)"/>
      <rect class="cls-2" x="89.2" y="168.55" width="11.84" height="29.33" rx="5.92" ry="5.92" transform="translate(52 -18.66) rotate(15.38)"/>
      <rect class="cls-2" x="162.32" y="31.3" width="11.84" height="29.33" rx="5.92" ry="5.92" transform="translate(4.7 106.56) rotate(-35.61)"/>
      <rect class="cls-2" x="239.56" y="67.37" width="11.84" height="29.33" rx="5.92" ry="5.92" transform="translate(211.79 338.66) rotate(-101)"/>
      <rect class="cls-2" x="159.13" y="206.58" width="11.84" height="29.33" rx="5.92" ry="5.92" transform="translate(-72.46 80.61) rotate(-22.65)"/>
      <polygon class="cls-2" points="62.27 41.06 61.08 69.79 47.33 89.48 52.89 123.16 39.06 150.74 54.28 181.81 59.75 215.53 89.4 226.93 110.91 242.08 144.84 244.36 173.51 257.92 209.49 233.58 243.19 239.89 221.9 263.47 190.78 279.12 162.66 285.63 101.03 280.45 61.17 259.91 34.36 233.36 10.37 183.21 10.37 132.11 20.79 90.17 39.06 65.16 62.27 41.06"/>
    </g>
  </g>
</svg>