<?xml version="1.0" encoding="UTF-8"?>
<svg id="Layer_2" xmlns="http://www.w3.org/2000/svg" viewBox="0 0 1106.99 405.32">
  <defs>
    <style>
      .cls-1 {
        fill: #1e1e1e;
      }

      .cls-2 {
        fill: none;
        stroke-width: 9.42px;
      }

      .cls-2, .cls-3, .cls-4 {
        stroke: #1e1e1e;
        stroke-miterlimit: 10;
      }

      .cls-3 {
        fill: #ef3f38;
      }

      .cls-3, .cls-4 {
        stroke-width: 9.15px;
      }

      .cls-4 {
        fill: #fff;
      }
    </style>
  </defs>
  <g id="Layer_2-2" data-name="Layer_2">
    <g id="Layer_2-2">
      <g>
        <g>
          <path class="cls-2" d="M382.88,150.28c-14.59,36.14-48.22,57.5-89.57,57.5-54.39,0-98.49-44.1-98.49-98.49,0-32.66,15.9-61.62,40.39-79.53"/>
          <path class="cls-3" d="M399.78,134.43c-5.95,11.94-9.63,8.78-20.11,17.29-4.32,3.5-8.55,19.24-13.47,22s-18.99-6.5-24.41-4.57c-10.86,3.87-13.75,17.61-26.05,17.61-5.35,0-15.65-9.06-20.77-9.81-8.01-1.21-17.32,1.26-24.57-1.65-11.03-4.44-7.07-3.29-15.58-10.98-4.28-3.84-18-3.75-21.48-8.26-4.39-5.7-1.01-17.84-3.96-24.41-4.94-11.05-11.03-9.77-11.03-22.51,0-4.78,9.26-15.37,10.02-19.97,1.37-8.51-7.69-16.79-4.03-24.38,3.04-6.31,5.54-8.78,9.95-14.25,3.87-4.78-.94-21.46,3.8-25.44,8.71-7.32,18.57-3.27,29.64-7.34,5.44-1.99,12.97-11.96,18.82-13.02,6.06-1.1,19.19,2.97,25.6,2.97,10.96,0,22.64-3.11,32.48,0,7,2.22,11.25,8.6,17.45,12.17s17.06,4.78,22.28,9.49c9.31,8.44,2.54,19.99,7.75,31.31,5.22,11.32,13.86,13.91,13.86,27.01,0,6.88-7.98,16.01-9.49,22.46-1.58,6.72,6.27,18.16,3.23,24.25h.05Z"/>
          <rect class="cls-4" x="258.97" y="74.32" width="105.9" height="35.07" rx="17.52" ry="17.52"/>
          <rect class="cls-1" x="238.18" y="101.08" width="8.58" height="21.25" rx="4.28" ry="4.28" transform="translate(-24.32 101.99) rotate(-22.65)"/>
          <rect class="cls-1" x="328.95" y="39.07" width="21.25" height="8.58" rx="4.28" ry="4.28" transform="translate(278.49 380.2) rotate(-87)"/>
          <rect class="cls-1" x="326.38" y="123.31" width="8.58" height="21.25" rx="4.28" ry="4.28" transform="translate(68.22 375.6) rotate(-64.69)"/>
          <rect class="cls-1" x="273.09" y="141.84" width="21.25" height="8.58" rx="4.28" ry="4.28" transform="translate(-33.55 180.64) rotate(-33.46)"/>
          <rect class="cls-1" x="273.09" y="42.92" width="21.25" height="8.58" rx="4.28" ry="4.28" transform="translate(137.83 295.09) rotate(-68.97)"/>
          <rect class="cls-1" x="247.98" y="45.28" width="8.58" height="21.25" rx="4.28" ry="4.28" transform="translate(-2.07 101.46) rotate(-22.65)"/>
          <rect class="cls-1" x="348.28" y="141.87" width="21.25" height="8.58" rx="4.28" ry="4.28" transform="translate(73.34 408.12) rotate(-64.69)"/>
          <rect class="cls-1" x="366.94" y="105.09" width="21.25" height="8.58" rx="4.28" ry="4.28" transform="translate(171.97 444.42) rotate(-74.62)"/>
          <rect class="cls-1" x="248.35" y="128.41" width="21.25" height="8.58" rx="4.28" ry="4.28" transform="translate(62.34 347.2) rotate(-74.62)"/>
          <rect class="cls-1" x="307.65" y="22.7" width="8.58" height="21.25" rx="4.28" ry="4.28" transform="translate(38.93 187.86) rotate(-35.61)"/>
          <rect class="cls-1" x="357.24" y="55.13" width="21.25" height="8.58" rx="4.28" ry="4.28" transform="translate(-4.58 71.28) rotate(-11)"/>
          <rect class="cls-1" x="305.32" y="149.58" width="8.58" height="21.25" rx="4.28" ry="4.28" transform="translate(-37.81 131.59) rotate(-22.65)"/>
          <polygon class="cls-1" points="235.19 29.76 234.34 50.56 224.37 64.83 228.39 89.21 218.37 109.18 229.4 131.69 233.36 156.09 254.83 164.35 270.41 175.33 294.98 176.98 315.75 186.79 341.8 169.15 366.2 173.73 350.79 190.82 328.23 202.14 307.88 206.85 263.25 203.1 234.38 188.23 214.99 168.99 197.6 132.69 197.6 95.68 205.15 65.31 218.37 47.22 235.19 29.76"/>
        </g>
        <g>
          <path class="cls-1" d="M0,202.96V16.84h83.15c58.6,0,102.13,33.49,102.13,92.91s-43.53,93.21-101.86,93.21c0,0-83.42,0-83.42,0ZM56.36,153.85h26.78c28.18,0,44.92-20.65,44.92-44.1,0-25.12-14.5-43.8-44.65-43.8h-27.06s0,87.9,0,87.9Z"/>
          <path class="cls-1" d="M538.28,202.96l-68.64-99.89v99.89h-56.36V16.84h58.03l64.73,93.76V16.84h56.36v186.12h-54.14.02Z"/>
          <path class="cls-1" d="M607.2,16.84h57.21v107.71c0,17.86,9.22,32.09,32.37,32.09s32.09-14.23,32.09-32.09V16.84h57.21v109.38c0,46.32-26.51,80.08-89.3,80.08s-89.57-33.76-89.57-79.81V16.84Z"/>
          <path class="cls-1" d="M840.78,202.96V65.95h-49.96V16.84h155.97v49.11h-49.66v137.01h-56.36Z"/>
          <path class="cls-1" d="M0,401.96v-186.12h83.15c58.6,0,102.13,33.49,102.13,92.91s-43.53,93.21-101.86,93.21H0ZM56.36,352.85h26.78c28.18,0,44.92-20.65,44.92-44.1,0-25.12-14.5-43.8-44.65-43.8h-27.06s0,87.9,0,87.9Z"/>
          <path class="cls-1" d="M190.03,401.96v-186.12h56.36v186.12h-56.36Z"/>
          <path class="cls-1" d="M276.27,333.89c13.95,13.4,34.88,23.99,60,23.99,10.61,0,20.65-3.64,20.65-10.89s-7.82-10.89-26.24-14.23c-30.7-5.58-77.56-12.83-77.56-59.43,0-31.54,26.24-60.27,77.29-60.27,30.42,0,57.76,8.65,78.96,25.96l-30.15,39.89c-16.19-12.28-37.12-18.41-51.9-18.41-13.95,0-17.02,5.03-17.02,9.77,0,7.25,7.53,9.77,27.36,13.11,30.7,5.31,76.17,14.23,76.17,57.21s-30.42,64.73-80.35,64.73c-39.62,0-66.7-11.71-86.51-29.58l29.3-41.86Z"/>
          <path class="cls-1" d="M456.81,401.96v-137.01h-49.96v-49.11h155.97v49.11h-49.66v137.01h-56.36Z"/>
          <path class="cls-1" d="M567.58,215.84h57.21v107.71c0,17.86,9.22,32.09,32.37,32.09s32.09-14.23,32.09-32.09v-107.71h57.21v109.38c0,46.32-26.51,80.08-89.3,80.08s-89.57-33.76-89.57-79.81v-109.66h0Z"/>
          <path class="cls-1" d="M863.66,401.96l-25.66-59.72h-20.38v59.72h-56.36v-186.12h99.34c43.53,0,66.97,29.03,66.97,63.91,0,32.09-18.69,49.11-33.49,56.36l33.76,65.85h-64.18ZM851.95,262.73h-34.31v32.64h34.31c9.49,0,18.41-6.13,18.41-16.47s-8.92-16.19-18.41-16.19v.02Z"/>
          <path class="cls-1" d="M935.09,401.96v-186.12h113.02c38.5,0,55.26,25.66,55.26,47.44,0,23.15-13.68,38.79-31.82,42.7,20.08,3.07,35.43,21.48,35.43,45.47,0,25.96-17.59,50.5-54.97,50.5h-116.93ZM991.47,285.05h43.53c5.86,0,11.16-5.31,11.16-12.01s-5.31-11.44-11.16-11.44h-43.53v23.45ZM991.47,356.21h45.2c8.1,0,13.11-5.58,13.11-12.56s-5.03-12.83-13.11-12.83h-45.2v25.39Z"/>
        </g>
      </g>
    </g>
  </g>
</svg>