<?xml version="1.0" encoding="UTF-8"?>
<svg id="Layer_2" data-name="Layer 2" xmlns="http://www.w3.org/2000/svg" viewBox="0 0 514.54 495.73">
  <defs>
    <style>
      .cls-1 {
        fill: #ef3f38;
      }

      .cls-1, .cls-2 {
        stroke-width: 21.33px;
      }

      .cls-1, .cls-2, .cls-3 {
        stroke: #1e1e1e;
        stroke-miterlimit: 10;
      }

      .cls-2 {
        fill: #fff;
      }

      .cls-4 {
        fill: #1e1e1e;
        stroke-width: 0px;
      }

      .cls-3 {
        fill: none;
        stroke-width: 21.96px;
      }
    </style>
  </defs>
  <g id="Layer_2-2" data-name="Layer 2">
    <g>
      <path class="cls-3" d="M449.79,350.59c-34.04,84.32-112.49,134.16-209.01,134.16-126.92,0-229.8-102.89-229.8-229.8,0-76.21,37.1-143.76,94.23-185.57"/>
      <path class="cls-1" d="M489.24,313.64c-13.87,27.85-22.47,20.5-46.93,40.34-10.08,8.17-19.94,44.89-31.42,51.33-11.48,6.44-44.29-15.16-56.94-10.66-25.32,9.03-32.1,41.12-60.78,41.12-12.49,0-36.49-21.12-48.45-22.91-18.7-2.82-40.41,2.95-57.32-3.84-25.71-10.33-16.47-7.66-36.35-25.6-9.96-8.98-41.99-8.73-50.11-19.27-10.25-13.3-2.37-41.62-9.23-56.96-11.52-25.79-25.72-22.77-25.72-52.51,0-11.18,21.64-35.89,23.37-46.6,3.22-19.86-17.92-39.19-9.38-56.89,7.12-14.75,12.94-20.5,23.23-33.27,9-11.14-2.19-50.04,8.88-59.34,20.33-17.07,43.35-7.64,69.19-17.11,12.69-4.63,30.25-27.89,43.92-30.36,14.17-2.57,44.78,6.93,59.74,6.93,25.59,0,52.82-7.26,75.81,0,16.34,5.16,26.26,20.08,40.74,28.39,14.48,8.3,39.84,11.14,51.98,22.15,21.72,19.7,5.91,46.64,18.1,73.05,12.17,26.4,32.33,32.44,32.33,63.04,0,16.04-18.64,37.38-22.16,52.41-3.67,15.71,14.6,42.36,7.52,56.57Z"/>
      <rect class="cls-2" x="160.71" y="173.35" width="247.1" height="81.82" rx="40.91" ry="40.91"/>
      <g id="Sprinkles">
        <rect class="cls-4" x="112.22" y="235.88" width="20" height="49.56" rx="10" ry="10" transform="translate(-90.94 67.15) rotate(-22.65)"/>
        <rect class="cls-4" x="338.77" y="76.31" width="20" height="49.56" rx="10" ry="10" transform="translate(5.76 -18.1) rotate(3)"/>
        <rect class="cls-4" x="317.94" y="287.64" width="20" height="49.56" rx="10" ry="10" transform="translate(-94.68 475.35) rotate(-64.69)"/>
        <rect class="cls-4" x="208.46" y="316.14" width="20" height="49.56" rx="10" ry="10" transform="translate(382.4 -29.32) rotate(56.54)"/>
        <rect class="cls-4" x="208.46" y="85.32" width="20" height="49.56" rx="10" ry="10" transform="translate(382.86 291.27) rotate(-158.97)"/>
        <rect class="cls-4" x="135.02" y="105.61" width="20" height="49.56" rx="10" ry="10" transform="translate(-39.02 65.89) rotate(-22.65)"/>
        <rect class="cls-4" x="383.91" y="316.14" width="20" height="49.56" rx="10" ry="10" transform="translate(183.52 -135.66) rotate(25.31)"/>
        <rect class="cls-4" x="427.42" y="230.38" width="20" height="49.56" rx="10" ry="10" transform="translate(83.33 -106.87) rotate(15.38)"/>
        <rect class="cls-4" x="150.71" y="284.77" width="20" height="49.56" rx="10" ry="10" transform="translate(87.85 -31.54) rotate(15.38)"/>
        <rect class="cls-4" x="274.26" y="52.89" width="20" height="49.56" rx="10" ry="10" transform="translate(7.93 180.04) rotate(-35.61)"/>
        <rect class="cls-4" x="404.76" y="113.83" width="20" height="49.56" rx="10" ry="10" transform="translate(357.84 572.2) rotate(-101)"/>
        <rect class="cls-4" x="268.86" y="349.03" width="20" height="49.56" rx="10" ry="10" transform="translate(-122.43 136.19) rotate(-22.65)"/>
      </g>
      <polygon class="cls-4" points="105.21 69.37 103.2 117.92 79.97 151.19 89.35 208.08 65.99 254.68 91.71 307.19 100.95 364.15 151.05 383.42 187.4 409.02 244.71 412.86 293.17 435.77 353.95 394.66 410.89 405.32 374.91 445.16 322.34 471.6 274.82 482.6 170.69 473.84 103.35 439.13 58.05 394.28 17.52 309.55 17.52 223.22 35.12 152.36 65.99 110.1 105.21 69.37"/>
    </g>
  </g>
</svg>